<?xml version="1.0" standalone="no"?>
<!DOCTYPE svg PUBLIC "-//W3C//DTD SVG 20010904//EN"
 "http://www.w3.org/TR/2001/REC-SVG-20010904/DTD/svg10.dtd">
<svg version="1.0" xmlns="http://www.w3.org/2000/svg"
 width="512.000000pt" height="512.000000pt" viewBox="0 0 512.000000 512.000000"
 preserveAspectRatio="xMidYMid meet">
<metadata>
Created by potrace 1.11, written by Peter Selinger 2001-2013
</metadata>
<g transform="translate(0.000000,512.000000) scale(0.100000,-0.100000)"
fill="#000000" stroke="none">
<path d="M7 5113 c-11 -10 -8 -2113 2 -2113 5 0 13 9 16 21 20 62 156 242 269
354 243 242 508 382 830 437 154 26 408 21 585 -11 63 -11 117 -19 119 -17 2
2 28 57 57 122 74 159 145 269 239 371 212 227 463 366 783 434 138 29 374 36
512 15 57 -9 107 -13 112 -10 5 3 9 0 9 -7 0 -6 8 -9 20 -6 11 3 20 1 20 -5 0
-6 9 -8 20 -5 12 3 18 1 14 -5 -4 -6 1 -8 15 -3 12 4 21 2 21 -4 0 -6 7 -7 17
-4 12 5 14 3 8 -7 -6 -10 -3 -12 13 -8 14 4 20 2 15 -5 -4 -6 0 -8 10 -4 22 8
49 -2 40 -16 -4 -6 0 -8 10 -4 10 3 17 2 17 -4 0 -6 4 -8 9 -5 13 8 42 -4 35
-15 -3 -5 3 -6 12 -2 12 4 15 3 10 -5 -4 -7 -2 -10 6 -7 8 3 22 -2 33 -11 11
-8 14 -12 6 -8 -9 4 -12 3 -7 -4 4 -6 12 -9 19 -6 7 2 21 -3 32 -12 11 -8 14
-12 6 -8 -9 4 -12 3 -7 -4 4 -6 13 -9 20 -6 8 3 17 0 22 -7 5 -8 3 -10 -7 -4
-8 5 -11 4 -6 -1 5 -5 16 -9 25 -9 9 0 17 -5 17 -12 0 -6 4 -15 9 -20 5 -5 6
-3 2 5 -4 6 -3 12 2 12 11 0 30 -20 32 -35 1 -5 4 -12 7 -15 4 -3 3 1 -1 8 -4
6 -3 12 2 12 12 0 43 -35 37 -42 -3 -3 2 -11 12 -19 11 -9 14 -10 9 -1 -19 31
16 6 70 -50 150 -157 254 -353 293 -553 7 -33 14 -67 17 -76 3 -11 25 -21 67
-29 150 -29 404 -131 525 -211 l32 -21 0 826 0 826 -2553 0 c-1405 0 -2557 -3
-2560 -7z m1865 -1192 c-31 -66 -58 -118 -60 -116 -5 5 105 235 112 235 2 0
-21 -54 -52 -119z"/>
<path d="M3050 3901 c-272 -61 -508 -237 -623 -467 l-26 -51 -113 -6 c-131 -6
-227 -31 -343 -87 -149 -71 -277 -187 -356 -321 -47 -79 -48 -100 -2 -36 41
56 139 152 194 189 196 133 433 183 669 143 34 -6 35 -5 54 41 73 180 254 344
459 415 414 143 857 -64 952 -444 17 -66 18 -67 59 -77 304 -79 487 -251 542
-511 60 -282 -106 -606 -387 -754 l-70 -36 -35 30 c-28 25 -43 31 -82 31 -154
0 -181 -192 -31 -216 70 -12 149 51 149 117 0 22 7 28 43 38 87 26 217 104
297 178 165 154 250 340 250 547 -1 281 -154 517 -425 654 -33 16 -79 35 -102
42 -24 7 -43 17 -43 22 0 6 -13 42 -29 82 -91 227 -282 391 -543 467 -107 31
-341 36 -458 10z m925 -1981 c50 -19 53 -104 4 -130 -48 -26 -129 6 -129 51 0
66 60 104 125 79z"/>
<path d="M3515 3131 c-99 -18 -119 -38 -53 -54 20 -5 39 -14 41 -22 3 -7 -8
-75 -25 -152 l-30 -139 -88 0 c-81 0 -93 -3 -161 -36 -137 -68 -218 -177 -226
-306 -6 -88 22 -144 88 -180 59 -32 154 -27 228 12 l50 26 -6 -32 c-5 -27 -4
-30 12 -25 17 7 178 37 196 37 5 0 9 6 9 14 0 8 -15 17 -36 20 -19 4 -38 14
-41 22 -8 20 154 742 184 821 7 17 -27 16 -142 -6z m-152 -424 c62 -26 63 -33
33 -175 -43 -199 -43 -200 -78 -218 -42 -22 -116 -22 -149 -1 -40 27 -54 63
-54 141 1 57 6 81 27 121 31 59 80 108 128 129 44 19 53 19 93 3z"/>
<path d="M853 2770 c-195 -41 -315 -220 -243 -361 23 -44 53 -67 180 -138 123
-69 151 -120 114 -209 -45 -110 -166 -160 -270 -113 -48 22 -79 67 -96 139
-10 44 -15 52 -35 52 -22 0 -23 -2 -23 -92 0 -51 -3 -103 -6 -115 -5 -19 0
-23 71 -38 111 -25 231 -18 310 19 117 53 195 159 195 264 0 100 -46 154 -200
232 -102 52 -125 78 -124 139 5 141 154 223 273 150 37 -22 51 -54 51 -115 0
-41 2 -45 22 -42 17 2 25 17 43 83 12 44 25 90 29 102 6 19 2 22 -46 33 -73
16 -194 21 -245 10z"/>
<path d="M1395 2755 c-27 -7 -76 -19 -107 -25 -67 -13 -75 -32 -20 -46 29 -7
38 -14 40 -34 4 -37 -156 -691 -174 -711 -9 -10 -32 -21 -52 -26 -19 -5 -37
-14 -40 -21 -3 -10 33 -12 164 -10 123 2 168 6 172 16 2 6 -4 12 -15 12 -10 0
-35 5 -55 11 -47 13 -47 16 -4 178 l33 124 94 1 c86 1 101 4 161 34 126 62
207 171 216 292 3 53 0 76 -16 113 -44 100 -163 131 -285 74 l-58 -27 6 30 c7
34 9 33 -60 15z m238 -103 c28 -28 32 -39 35 -99 9 -162 -108 -302 -231 -279
-20 4 -45 15 -57 24 l-22 18 36 164 c20 90 39 168 43 173 13 20 70 37 116 34
38 -3 56 -11 80 -35z"/>
<path d="M2123 2752 c-101 -36 -170 -100 -221 -202 -22 -44 -27 -69 -27 -125
0 -87 22 -136 78 -173 36 -24 51 -27 121 -27 66 0 90 4 129 25 71 36 125 85
110 100 -8 9 -22 6 -58 -15 -34 -20 -61 -28 -98 -28 -103 -1 -157 54 -157 161
l0 62 180 0 c205 0 202 -2 203 92 1 51 -17 86 -64 120 -37 28 -133 33 -196 10z
m115 -64 c25 -24 31 -85 10 -106 -14 -14 -228 -17 -228 -4 0 26 65 103 103
121 47 24 80 21 115 -11z"/>
<path d="M2697 2759 c-97 -23 -200 -110 -246 -209 -21 -44 -26 -70 -26 -131 0
-65 4 -81 27 -116 74 -112 256 -110 386 3 28 25 34 35 25 44 -8 9 -22 6 -58
-15 -34 -20 -61 -28 -98 -28 -103 -1 -157 54 -157 161 l0 62 179 0 c122 0 182
4 187 11 16 26 23 86 14 119 -23 84 -120 126 -233 99z m82 -65 c33 -27 41 -67
21 -105 -10 -17 -22 -19 -120 -19 -61 0 -110 4 -110 8 0 27 62 101 101 120 56
28 71 28 108 -4z"/>
<path d="M3640 2730 c0 -14 7 -20 23 -20 27 0 41 -9 55 -35 10 -20 63 -293 77
-400 4 -27 9 -57 11 -66 6 -23 -105 -171 -148 -197 -23 -14 -52 -22 -81 -22
-37 0 -49 -5 -66 -26 -39 -50 -22 -84 44 -84 94 0 158 71 376 415 220 349 265
407 327 420 18 4 32 13 32 21 0 19 -226 21 -233 2 -2 -8 9 -18 26 -24 17 -6
32 -15 34 -20 3 -8 -192 -322 -210 -341 -2 -2 -16 71 -31 162 -30 181 -29 188
25 200 16 4 29 13 29 21 0 11 -26 14 -145 14 -138 0 -145 -1 -145 -20z"/>
<path d="M1550 2114 c0 -38 1 -38 13 -14 9 19 22 26 50 28 l37 3 0 -116 c0
-111 -1 -116 -22 -125 -21 -8 -21 -9 7 -9 71 -1 70 -3 67 130 l-3 120 38 -3
c28 -2 41 -9 50 -28 l13 -25 0 33 c0 32 0 32 -48 32 -27 0 -83 3 -125 6 l-77
7 0 -39z"/>
<path d="M3219 2143 c0 -5 0 -32 1 -60 l1 -53 -70 0 -71 0 0 45 c0 31 5 47 18
54 13 8 2 10 -43 10 -33 -1 -52 -3 -42 -6 15 -4 17 -18 17 -118 0 -100 -2
-114 -17 -118 -10 -3 6 -5 36 -6 45 -1 52 1 42 13 -7 8 -11 36 -9 63 2 38 6
48 21 47 9 -1 40 -2 67 -3 l50 -1 0 -55 c0 -41 -4 -56 -17 -64 -14 -8 -4 -10
42 -10 46 0 56 2 43 10 -16 9 -18 26 -18 124 0 98 2 115 18 124 13 8 8 10 -25
11 -24 0 -43 -3 -44 -7z"/>
<path d="M2607 2126 c-58 -16 -84 -38 -98 -86 -9 -30 -8 -44 5 -72 25 -52 68
-72 153 -72 40 0 74 2 76 4 2 3 7 18 11 34 l7 29 -37 -33 c-31 -27 -42 -31
-73 -26 -52 8 -83 44 -88 103 -4 42 -1 53 21 80 43 51 130 51 154 0 10 -21 11
-20 11 9 1 27 -3 32 -30 38 -42 8 -55 7 -112 -8z"/>
<path d="M2078 2029 c2 -67 -1 -105 -9 -115 -10 -12 2 -14 84 -14 77 0 96 3
101 16 12 31 6 37 -14 16 -15 -16 -32 -22 -65 -22 l-45 0 0 50 0 50 45 0 c25
0 45 5 45 10 0 6 -20 10 -45 10 l-45 0 0 45 0 45 46 0 c37 0 47 -4 51 -20 7
-28 23 -25 23 5 0 25 -1 25 -87 25 l-88 0 3 -101z"/>
<path d="M5068 2022 c-107 -175 -285 -362 -450 -472 -346 -232 -740 -311
-1177 -237 l-144 24 -34 -76 c-109 -241 -186 -355 -330 -491 -274 -257 -620
-390 -1012 -390 -180 0 -295 18 -456 71 -186 62 -348 161 -485 299 -84 83
-126 140 -182 245 -43 80 -52 81 -12 2 85 -168 261 -350 437 -451 26 -16 47
-30 47 -33 0 -2 -23 9 -51 25 -98 57 -213 148 -296 237 -140 149 -214 287
-270 512 -23 89 -25 106 -13 114 10 6 4 7 -20 3 -26 -4 -31 -3 -20 5 11 8 5 9
-25 5 -31 -4 -37 -3 -25 6 12 9 11 10 -7 5 -57 -16 -360 104 -510 203 l-23 14
0 -821 0 -821 2555 0 2555 0 0 1050 c0 578 -1 1050 -3 1050 -1 0 -23 -35 -49
-78z m-1794 -826 c-25 -58 -50 -109 -55 -112 -5 -3 7 30 27 73 20 43 43 95 51
116 9 21 17 36 20 34 2 -3 -17 -52 -43 -111z m-1929 -716 c3 -6 -1 -7 -9 -4
-18 7 -21 14 -7 14 6 0 13 -4 16 -10z m613 -127 c-10 -2 -26 -2 -35 0 -10 3
-2 5 17 5 19 0 27 -2 18 -5z"/>
<path d="M681 1334 c0 -11 3 -14 6 -6 3 7 2 16 -1 19 -3 4 -6 -2 -5 -13z"/>
<path d="M691 1284 c0 -11 3 -14 6 -6 3 7 2 16 -1 19 -3 4 -6 -2 -5 -13z"/>
<path d="M701 1234 c0 -11 3 -14 6 -6 3 7 2 16 -1 19 -3 4 -6 -2 -5 -13z"/>
<path d="M711 1194 c0 -11 3 -14 6 -6 3 7 2 16 -1 19 -3 4 -6 -2 -5 -13z"/>
<path d="M740 1105 c0 -5 5 -17 10 -25 5 -8 10 -10 10 -5 0 6 -5 17 -10 25 -5
8 -10 11 -10 5z"/>
</g>
</svg>
